<?xml version="1.0" standalone="no"?>
<!DOCTYPE svg PUBLIC "-//W3C//DTD SVG 20010904//EN"
 "http://www.w3.org/TR/2001/REC-SVG-20010904/DTD/svg10.dtd">
<svg version="1.0" xmlns="http://www.w3.org/2000/svg"
 width="1024.000000pt" height="576.000000pt" viewBox="0 0 1024.000000 576.000000"
 preserveAspectRatio="xMidYMid meet">

<g transform="translate(0.000000,576.000000) scale(0.100000,-0.100000)"
fill="#000000" stroke="none">
<path d="M0 4915 l0 -845 190 0 190 0 3 188 2 187 3 -187 2 -188 190 0 190 0
0 152 c0 83 2 149 4 147 3 -3 6 -71 7 -152 l2 -147 193 0 194 0 3 178 2 177 3
-177 2 -178 190 0 190 0 3 168 3 167 2 -167 2 -168 195 0 195 0 3 173 3 172 2
-172 2 -173 190 0 190 0 3 188 2 187 3 -187 2 -188 195 0 195 0 3 188 2 187 3
-187 2 -188 190 0 190 0 3 173 3 172 2 -172 2 -173 194 0 193 0 2 147 c1 81 4
149 7 152 2 2 4 -64 4 -147 l0 -152 190 0 190 0 3 188 2 187 3 -187 2 -188 71
0 70 0 82 63 c45 35 99 74 120 86 40 24 45 37 50 121 3 48 4 46 5 -18 l2 -73
43 25 c50 29 230 102 272 110 17 4 -1 -5 -38 -19 -421 -152 -759 -465 -927
-859 -48 -112 -83 -226 -107 -345 -24 -121 -24 -441 0 -562 114 -570 490
-1008 1034 -1204 37 -14 55 -23 38 -19 -44 8 -202 71 -262 105 l-52 28 -4 -32
-4 -32 -1 32 c-2 27 -10 38 -44 59 -24 15 -80 55 -125 90 l-82 64 -70 0 -71 0
-3 -188 -2 -187 -3 188 -2 187 -190 0 -190 0 -1 -157 c-2 -189 -7 -182 -11 12
l-3 140 -192 3 -193 2 -3 -172 -3 -173 -2 173 -2 172 -190 0 -190 0 -2 -187
-2 -188 -6 185 -5 185 -192 3 -193 2 -3 -187 -2 -188 -3 188 -2 187 -190 0
-190 0 -3 -173 -3 -172 -2 173 -2 172 -192 -2 -193 -3 -5 -165 -6 -165 -2 168
-2 167 -190 0 -190 0 -3 -177 -2 -178 -3 178 -2 177 -192 -2 -193 -3 -3 -140
c-4 -194 -9 -201 -11 -12 l-1 157 -190 0 -190 0 -3 -187 -2 -188 -3 188 -2
187 -190 0 -190 0 0 -845 0 -845 5120 0 5120 0 0 845 0 845 -190 0 -190 0 -3
-187 -2 -188 -3 188 -2 187 -190 0 -190 0 -1 -157 c-2 -189 -7 -182 -11 12
l-3 140 -192 3 -193 2 -3 -177 -2 -178 -3 178 -2 177 -190 0 -190 0 -2 -167
-2 -168 -6 165 -5 165 -192 3 -193 2 -3 -172 -3 -173 -2 173 -2 172 -190 0
-190 0 -3 -188 -2 -187 -3 188 -2 187 -192 -2 -193 -3 -5 -170 -6 -170 -2 173
-2 172 -190 0 -190 0 -3 -173 -3 -172 -2 173 -2 172 -193 -2 -192 -3 -3 -140
c-4 -194 -9 -201 -11 -12 l-1 157 -190 0 -190 0 -3 -187 -2 -188 -3 188 -2
187 -71 0 -70 0 -82 -64 c-45 -35 -101 -75 -124 -89 -33 -21 -43 -34 -46 -59
l-4 -33 -1 33 -2 32 -52 -29 c-61 -34 -219 -97 -263 -105 -16 -4 1 5 38 19
544 196 920 634 1034 1204 24 121 24 441 0 562 -114 569 -491 1008 -1034 1204
-37 14 -54 23 -38 19 42 -8 222 -81 273 -110 l42 -25 2 73 c1 64 2 66 5 18 5
-84 10 -97 50 -121 21 -12 75 -51 120 -86 l82 -63 70 0 71 0 3 188 2 187 3
-187 2 -188 190 0 190 0 0 152 c0 83 2 149 4 147 3 -3 6 -71 7 -152 l2 -147
193 0 194 0 3 173 3 172 2 -172 2 -173 190 0 190 0 3 188 2 187 3 -187 2 -188
195 0 195 0 3 188 2 187 3 -187 2 -188 190 0 190 0 3 173 3 172 2 -172 2 -173
195 0 195 0 3 168 3 167 2 -167 2 -168 190 0 190 0 3 178 2 177 3 -177 2 -178
194 0 193 0 2 147 c1 81 4 149 7 152 2 2 4 -64 4 -147 l0 -152 190 0 190 0 3
188 2 187 3 -187 2 -188 190 0 190 0 0 845 0 845 -5120 0 -5120 0 0 -845z
m4728 -491 c-3 -14 -5 -12 -10 9 -3 19 -2 25 4 19 6 -6 8 -18 6 -28z m195 29
c-7 -2 -21 -2 -30 0 -10 3 -4 5 12 5 17 0 24 -2 18 -5z m430 0 c-7 -2 -21 -2
-30 0 -10 3 -4 5 12 5 17 0 24 -2 18 -5z m169 -23 c-3 -24 -1 -30 14 -30 9 0
15 -3 12 -6 -3 -3 -21 -1 -39 5 -19 5 -26 10 -16 10 9 1 17 9 17 19 0 15 8 32
15 32 1 0 0 -13 -3 -30z m-619 3 c-7 -2 -19 -2 -25 0 -7 3 -2 5 12 5 14 0 19
-2 13 -5z m460 0 c-7 -2 -19 -2 -25 0 -7 3 -2 5 12 5 14 0 19 -2 13 -5z m-516
-9 c-3 -3 -12 -4 -19 -1 -8 3 -5 6 6 6 11 1 17 -2 13 -5z m570 0 c-3 -3 -12
-4 -19 -1 -8 3 -5 6 6 6 11 1 17 -2 13 -5z m-614 -11 c-7 -2 -19 -2 -25 0 -7
3 -2 5 12 5 14 0 19 -2 13 -5z m660 0 c-7 -2 -19 -2 -25 0 -7 3 -2 5 12 5 14
0 19 -2 13 -5z m-746 -19 c-3 -3 -12 -4 -19 -1 -8 3 -5 6 6 6 11 1 17 -2 13
-5z m415 -206 l3 -112 60 -3 c105 -5 197 -23 302 -58 191 -64 327 -148 469
-289 167 -167 267 -347 326 -585 31 -125 31 -397 0 -522 -59 -238 -159 -418
-326 -585 -142 -141 -278 -225 -469 -289 -95 -32 -267 -65 -337 -65 l-30 0 0
-110 c0 -67 -4 -110 -10 -110 -6 0 -10 43 -10 110 l0 110 -30 0 c-70 0 -242
33 -337 65 -191 64 -327 148 -469 289 -167 167 -267 346 -326 585 -31 125 -31
397 0 522 59 239 159 418 326 585 211 210 481 332 771 347 l60 3 3 112 c1 62
7 112 12 112 5 0 11 -50 12 -112z m-795 -2810 c-2 -13 -4 -3 -4 22 0 25 2 35
4 23 2 -13 2 -33 0 -45z m1570 0 c-2 -13 -4 -3 -4 22 0 25 2 35 4 23 2 -13 2
-33 0 -45z m-1190 -14 c-3 -3 -12 -4 -19 -1 -8 3 -5 6 6 6 11 1 17 -2 13 -5z
m820 -1 c-14 -4 -18 -12 -15 -33 2 -16 1 -27 -4 -24 -4 3 -8 14 -8 25 0 11 -7
19 -17 20 -21 1 24 17 47 17 9 0 7 -2 -3 -5z m-789 -10 c-10 -2 -18 -13 -18
-23 0 -10 -4 -22 -10 -25 -5 -3 -8 1 -5 9 3 9 7 23 10 31 2 8 12 14 22 14 17
-1 17 -2 1 -6z m-3181 -25 c-3 -8 -6 -5 -6 6 -1 11 2 17 5 13 3 -3 4 -12 1
-19z m3236 15 c-7 -2 -19 -2 -25 0 -7 3 -2 5 12 5 14 0 19 -2 13 -5z m660 0
c-7 -2 -19 -2 -25 0 -7 3 -2 5 12 5 14 0 19 -2 13 -5z m-610 -10 c-7 -2 -19
-2 -25 0 -7 3 -2 5 12 5 14 0 19 -2 13 -5z m560 0 c-7 -2 -19 -2 -25 0 -7 3
-2 5 12 5 14 0 19 -2 13 -5z m-510 -10 c-7 -2 -19 -2 -25 0 -7 3 -2 5 12 5 14
0 19 -2 13 -5z m460 0 c-7 -2 -19 -2 -25 0 -7 3 -2 5 12 5 14 0 19 -2 13 -5z
m-336 -9 c-3 -3 -12 -4 -19 -1 -8 3 -5 6 6 6 11 1 17 -2 13 -5z m210 0 c-3 -3
-12 -4 -19 -1 -8 3 -5 6 6 6 11 1 17 -2 13 -5z m-1687 -8 c0 -3 -4 -8 -10 -11
-5 -3 -10 -1 -10 4 0 6 5 11 10 11 6 0 10 -2 10 -4z m1363 -3 c-7 -2 -19 -2
-25 0 -7 3 -2 5 12 5 14 0 19 -2 13 -5z m440 0 c-7 -2 -19 -2 -25 0 -7 3 -2 5
12 5 14 0 19 -2 13 -5z m1357 -3 c0 -5 -2 -10 -4 -10 -3 0 -8 5 -11 10 -3 6
-1 10 4 10 6 0 11 -4 11 -10z"/>
<path d="M4940 4049 c-30 -5 -90 -18 -133 -30 l-77 -22 2 -156 3 -156 188 -3
187 -2 0 190 0 190 -57 -1 c-32 -1 -83 -5 -113 -10z"/>
<path d="M5130 3870 l0 -190 188 2 187 3 3 156 2 156 -77 22 c-93 25 -190 41
-255 41 l-48 0 0 -190z"/>
<path d="M4617 3948 c-48 -23 -87 -44 -87 -47 0 -4 43 -49 95 -101 l95 -95 0
143 c0 78 -3 142 -8 142 -4 0 -47 -19 -95 -42z"/>
<path d="M5520 3848 l0 -143 95 95 c52 52 95 97 95 101 0 6 -170 89 -183 89
-4 0 -7 -64 -7 -142z"/>
<path d="M4425 3838 c-38 -28 -104 -85 -145 -127 -77 -78 -175 -208 -165 -220
3 -3 141 -142 308 -308 l302 -303 -302 -302 c-167 -167 -305 -306 -308 -309
-11 -12 89 -144 170 -224 75 -76 201 -175 222 -175 5 0 143 134 306 298 l297
299 0 413 0 413 -297 299 c-163 164 -302 298 -308 298 -5 0 -41 -23 -80 -52z"/>
<path d="M5427 3592 l-297 -299 0 -413 0 -413 297 -299 c163 -164 301 -298
306 -298 21 0 147 99 222 175 81 80 181 212 170 224 -3 3 -141 142 -308 309
l-302 302 302 303 c167 166 305 305 308 308 11 12 -89 144 -170 224 -75 76
-201 175 -222 175 -5 0 -143 -134 -306 -298z"/>
<path d="M4935 3490 c93 -93 171 -170 172 -170 2 0 3 77 3 170 l0 170 -172 0
-173 0 170 -170z"/>
<path d="M5130 3488 l0 -173 170 170 c94 93 170 171 170 172 0 2 -76 3 -170 3
l-170 0 0 -172z"/>
<path d="M4062 3403 c-17 -38 -36 -80 -41 -95 l-11 -28 143 0 142 0 -95 95
c-52 52 -97 95 -101 95 -3 0 -20 -30 -37 -67z"/>
<path d="M6040 3375 l-95 -95 142 0 143 0 -11 28 c-21 55 -72 162 -78 162 -4
0 -49 -43 -101 -95z"/>
<path d="M4002 3253 c-22 -43 -60 -243 -59 -315 l0 -48 189 0 188 0 -2 188 -3
187 -152 3 c-137 2 -153 1 -161 -15z"/>
<path d="M5927 3264 c-4 -4 -7 -90 -7 -191 l0 -183 189 0 188 0 1 48 c1 50
-30 226 -51 289 l-12 38 -151 3 c-82 1 -153 -1 -157 -4z"/>
<path d="M4340 3060 l0 -170 172 0 173 0 -170 170 c-93 94 -171 170 -172 170
-2 0 -3 -76 -3 -170z"/>
<path d="M5725 3060 l-170 -170 173 0 172 0 0 170 c0 94 -1 170 -3 170 -1 0
-79 -76 -172 -170z"/>
<path d="M3945 2798 c3 -74 26 -200 48 -267 l12 -36 155 0 155 0 3 188 2 187
-189 0 -190 0 4 -72z"/>
<path d="M4340 2698 l0 -173 170 170 c94 93 170 171 170 172 0 2 -76 3 -170 3
l-170 0 0 -172z"/>
<path d="M5725 2700 c93 -93 171 -170 172 -170 2 0 3 77 3 170 l0 170 -172 0
-173 0 170 -170z"/>
<path d="M5922 2683 l3 -188 155 0 155 0 12 38 c21 63 52 239 51 290 l-1 47
-189 0 -188 0 2 -187z"/>
<path d="M4021 2453 c21 -56 72 -163 78 -163 4 0 49 43 101 95 l95 95 -142 0
-143 0 11 -27z"/>
<path d="M6040 2385 c52 -52 97 -95 101 -95 6 0 57 107 78 163 l11 27 -143 0
-142 0 95 -95z"/>
<path d="M4935 2270 l-170 -170 173 0 172 0 0 170 c0 94 -1 170 -3 170 -1 0
-79 -76 -172 -170z"/>
<path d="M5130 2270 l0 -170 172 0 173 0 -170 170 c-93 94 -171 170 -172 170
-2 0 -3 -76 -3 -170z"/>
<path d="M4737 2073 c-4 -3 -7 -75 -7 -158 l0 -152 78 -22 c92 -25 189 -41
255 -41 l47 0 0 190 0 190 -183 0 c-101 0 -187 -3 -190 -7z"/>
<path d="M5130 1890 l0 -190 48 0 c65 0 162 16 255 41 l77 22 -2 156 -3 156
-187 3 -188 2 0 -190z"/>
<path d="M4623 1958 c-51 -52 -93 -96 -93 -99 0 -8 180 -92 186 -87 2 3 3 67
2 142 l-3 136 -92 -92z"/>
<path d="M5520 1912 c0 -78 3 -142 7 -142 13 0 183 83 183 89 0 4 -43 49 -95
101 l-95 95 0 -143z"/>
<path d="M0 3870 l0 -190 190 0 190 0 0 190 0 190 -190 0 -190 0 0 -190z"/>
<path d="M390 3870 l0 -190 190 0 190 0 0 190 0 190 -190 0 -190 0 0 -190z"/>
<path d="M789 4056 c-2 -2 -3 -88 -1 -190 l3 -186 189 0 190 0 0 190 0 190
-188 0 c-104 0 -191 -2 -193 -4z"/>
<path d="M1180 3870 l0 -190 190 0 190 0 0 190 0 190 -190 0 -190 0 0 -190z"/>
<path d="M1578 4053 c-2 -5 -2 -90 0 -190 l4 -183 189 0 189 0 -2 188 -3 187
-187 3 c-103 1 -188 -1 -190 -5z"/>
<path d="M1970 3870 l0 -190 190 0 190 0 0 190 0 190 -190 0 -190 0 0 -190z"/>
<path d="M2367 4053 c-4 -3 -7 -89 -7 -190 l0 -183 189 0 189 0 4 183 c2 100
2 185 0 190 -4 9 -366 10 -375 0z"/>
<path d="M2760 3870 l0 -190 190 0 190 0 0 190 0 190 -190 0 -190 0 0 -190z"/>
<path d="M3150 3870 l0 -190 190 0 189 0 3 186 c2 102 1 188 -1 190 -2 2 -89
4 -193 4 l-188 0 0 -190z"/>
<path d="M3550 3870 l0 -190 103 0 102 1 70 100 c38 55 77 107 87 116 14 13
18 32 18 90 l0 73 -190 0 -190 0 0 -190z"/>
<path d="M3940 4000 c0 -33 2 -60 3 -60 2 0 29 25 60 57 32 31 57 58 57 60 0
1 -27 3 -60 3 l-60 0 0 -60z"/>
<path d="M6180 4057 c0 -5 112 -117 117 -117 1 0 3 27 3 60 l0 60 -60 0 c-33
0 -60 -2 -60 -3z"/>
<path d="M6310 3987 c0 -58 4 -77 18 -90 10 -9 49 -61 87 -116 l70 -100 103
-1 102 0 0 190 0 190 -190 0 -190 0 0 -73z"/>
<path d="M6709 4056 c-2 -2 -3 -88 -1 -190 l3 -186 189 0 190 0 0 190 0 190
-188 0 c-104 0 -191 -2 -193 -4z"/>
<path d="M7100 3870 l0 -190 190 0 190 0 0 190 0 190 -190 0 -190 0 0 -190z"/>
<path d="M7498 4053 c-2 -5 -2 -90 0 -190 l4 -183 189 0 189 0 -2 188 -3 187
-187 3 c-103 1 -188 -1 -190 -5z"/>
<path d="M7890 3870 l0 -190 190 0 190 0 0 190 0 190 -190 0 -190 0 0 -190z"/>
<path d="M8287 4053 c-4 -3 -7 -89 -7 -190 l0 -183 189 0 189 0 4 183 c2 100
2 185 0 190 -4 9 -366 10 -375 0z"/>
<path d="M8680 3870 l0 -190 190 0 190 0 0 190 0 190 -190 0 -190 0 0 -190z"/>
<path d="M9070 3870 l0 -190 190 0 189 0 3 186 c2 102 1 188 -1 190 -2 2 -89
4 -193 4 l-188 0 0 -190z"/>
<path d="M9470 3870 l0 -190 190 0 190 0 0 190 0 190 -190 0 -190 0 0 -190z"/>
<path d="M9860 3870 l0 -190 190 0 190 0 0 190 0 190 -190 0 -190 0 0 -190z"/>
<path d="M0 3470 l0 -190 188 2 187 3 3 188 2 187 -190 0 -190 0 0 -190z"/>
<path d="M390 3470 l0 -190 190 0 190 0 0 190 0 190 -190 0 -190 0 0 -190z"/>
<path d="M790 3470 l0 -190 188 2 187 3 3 188 3 187 -190 0 -191 0 0 -190z"/>
<path d="M1180 3470 l0 -190 190 0 190 0 0 190 0 190 -190 0 -190 0 0 -190z"/>
<path d="M1580 3470 l0 -190 185 0 185 0 1 163 c1 89 2 174 3 190 l3 27 -189
0 -188 0 0 -190z"/>
<path d="M1970 3470 l0 -190 190 0 190 0 0 190 0 190 -190 0 -190 0 0 -190z"/>
<path d="M2366 3633 c1 -16 2 -101 3 -190 l1 -163 185 0 185 0 0 190 0 190
-188 0 -189 0 3 -27z"/>
<path d="M2760 3470 l0 -190 190 0 190 0 0 190 0 190 -190 0 -190 0 0 -190z"/>
<path d="M3152 3473 l3 -188 188 -3 187 -2 0 190 0 190 -191 0 -190 0 3 -187z"/>
<path d="M3550 3469 c0 -187 0 -190 21 -187 16 2 27 23 53 103 18 55 51 137
74 182 23 46 42 85 42 88 0 3 -43 5 -95 5 l-95 0 0 -191z"/>
<path d="M6500 3655 c0 -3 19 -42 42 -88 23 -45 56 -127 74 -182 26 -80 37
-101 53 -103 21 -3 21 0 21 187 l0 191 -95 0 c-52 0 -95 -2 -95 -5z"/>
<path d="M6710 3470 l0 -190 188 2 187 3 3 188 3 187 -190 0 -191 0 0 -190z"/>
<path d="M7100 3470 l0 -190 190 0 190 0 0 190 0 190 -190 0 -190 0 0 -190z"/>
<path d="M7500 3470 l0 -190 185 0 185 0 1 163 c1 89 2 174 3 190 l3 27 -189
0 -188 0 0 -190z"/>
<path d="M7890 3470 l0 -190 190 0 190 0 0 190 0 190 -190 0 -190 0 0 -190z"/>
<path d="M8286 3633 c1 -16 2 -101 3 -190 l1 -163 185 0 185 0 0 190 0 190
-188 0 -189 0 3 -27z"/>
<path d="M8680 3470 l0 -190 190 0 190 0 0 190 0 190 -190 0 -190 0 0 -190z"/>
<path d="M9072 3473 l3 -188 188 -3 187 -2 0 190 0 190 -191 0 -190 0 3 -187z"/>
<path d="M9470 3470 l0 -190 190 0 190 0 0 190 0 190 -190 0 -190 0 0 -190z"/>
<path d="M9862 3473 l3 -188 188 -3 187 -2 0 190 0 190 -190 0 -190 0 2 -187z"/>
<path d="M0 3080 l0 -190 185 0 c183 0 185 0 190 23 3 12 4 96 3 187 l-3 165
-187 3 -188 2 0 -190z"/>
<path d="M397 3263 c-4 -3 -7 -89 -7 -190 l0 -183 190 0 190 0 0 190 0 190
-183 0 c-101 0 -187 -3 -190 -7z"/>
<path d="M790 3080 l0 -190 185 0 185 0 1 155 c0 85 1 170 2 188 l1 32 -187 3
-187 2 0 -190z"/>
<path d="M1180 3080 l0 -190 190 0 190 0 0 190 0 190 -190 0 -190 0 0 -190z"/>
<path d="M1580 3080 l0 -190 185 0 185 0 0 190 0 190 -185 0 -185 0 0 -190z"/>
<path d="M1970 3080 l0 -190 190 0 190 0 0 190 0 190 -190 0 -190 0 0 -190z"/>
<path d="M2370 3080 l0 -190 185 0 185 0 0 190 0 190 -185 0 -185 0 0 -190z"/>
<path d="M2760 3080 l0 -190 190 0 190 0 0 190 0 190 -190 0 -190 0 0 -190z"/>
<path d="M3159 3265 c0 -3 -1 -18 -1 -35 0 -16 1 -100 1 -185 l1 -155 185 0
185 0 0 190 0 190 -185 0 c-102 0 -185 -2 -186 -5z"/>
<path d="M3550 3198 c0 -39 2 -69 4 -67 8 8 33 128 28 134 -3 3 -11 5 -19 5
-10 0 -13 -19 -13 -72z"/>
<path d="M6658 3265 c-5 -6 20 -126 28 -134 2 -2 4 28 4 67 0 53 -3 72 -13 72
-8 0 -16 -2 -19 -5z"/>
<path d="M6710 3080 l0 -190 185 0 185 0 1 155 c0 85 1 170 2 188 l1 32 -187
3 -187 2 0 -190z"/>
<path d="M7100 3080 l0 -190 190 0 190 0 0 190 0 190 -190 0 -190 0 0 -190z"/>
<path d="M7500 3080 l0 -190 185 0 185 0 0 190 0 190 -185 0 -185 0 0 -190z"/>
<path d="M7890 3080 l0 -190 190 0 190 0 0 190 0 190 -190 0 -190 0 0 -190z"/>
<path d="M8290 3080 l0 -190 185 0 185 0 0 190 0 190 -185 0 -185 0 0 -190z"/>
<path d="M8680 3080 l0 -190 190 0 190 0 0 190 0 190 -190 0 -190 0 0 -190z"/>
<path d="M9079 3265 c0 -3 -1 -18 -1 -35 0 -16 1 -100 1 -185 l1 -155 185 0
185 0 0 190 0 190 -185 0 c-102 0 -185 -2 -186 -5z"/>
<path d="M9470 3080 l0 -190 190 0 190 0 -2 188 -3 187 -187 3 -188 2 0 -190z"/>
<path d="M9867 3263 c-9 -8 -9 -336 -1 -357 5 -14 32 -16 190 -16 l184 0 0
190 0 190 -183 0 c-101 0 -187 -3 -190 -7z"/>
<path d="M0 2680 l0 -190 188 2 187 3 3 165 c1 91 0 175 -3 188 -5 22 -7 22
-190 22 l-185 0 0 -190z"/>
<path d="M392 2683 l3 -188 188 -3 187 -2 0 190 0 190 -190 0 -190 0 2 -187z"/>
<path d="M790 2680 l0 -190 187 2 187 3 -1 33 c-1 17 -2 102 -2 187 l-1 155
-185 0 -185 0 0 -190z"/>
<path d="M1180 2680 l0 -190 190 0 190 0 0 190 0 190 -190 0 -190 0 0 -190z"/>
<path d="M1580 2680 l0 -190 185 0 185 0 0 190 0 190 -185 0 -185 0 0 -190z"/>
<path d="M1970 2680 l0 -190 190 0 190 0 0 190 0 190 -190 0 -190 0 0 -190z"/>
<path d="M2370 2680 l0 -190 185 0 185 0 0 190 0 190 -185 0 -185 0 0 -190z"/>
<path d="M2760 2680 l0 -190 190 0 190 0 0 190 0 190 -190 0 -190 0 0 -190z"/>
<path d="M3159 2715 c0 -85 -1 -170 -2 -187 l-1 -33 187 -3 187 -2 0 190 0
190 -185 0 -185 0 -1 -155z"/>
<path d="M6710 2680 l0 -190 187 2 187 3 -1 33 c-1 17 -2 102 -2 187 l-1 155
-185 0 -185 0 0 -190z"/>
<path d="M7100 2680 l0 -190 190 0 190 0 0 190 0 190 -190 0 -190 0 0 -190z"/>
<path d="M7500 2680 l0 -190 185 0 185 0 0 190 0 190 -185 0 -185 0 0 -190z"/>
<path d="M7890 2680 l0 -190 190 0 190 0 0 190 0 190 -190 0 -190 0 0 -190z"/>
<path d="M8290 2680 l0 -190 185 0 185 0 0 190 0 190 -185 0 -185 0 0 -190z"/>
<path d="M8680 2680 l0 -190 190 0 190 0 0 190 0 190 -190 0 -190 0 0 -190z"/>
<path d="M9079 2715 c0 -85 -1 -170 -2 -187 l-1 -33 187 -3 187 -2 0 190 0
190 -185 0 -185 0 -1 -155z"/>
<path d="M9470 2680 l0 -190 188 2 187 3 3 188 2 187 -190 0 -190 0 0 -190z"/>
<path d="M9865 2848 c-3 -13 -4 -97 -3 -188 l3 -165 188 -3 187 -2 0 190 0
190 -185 0 c-183 0 -185 0 -190 -22z"/>
<path d="M3550 2562 c0 -53 3 -72 13 -72 8 0 16 2 19 5 5 6 -20 126 -28 134
-2 2 -4 -28 -4 -67z"/>
<path d="M6669 2570 c-14 -72 -14 -74 5 -78 13 -3 16 9 16 67 0 39 -2 71 -4
71 -3 0 -10 -27 -17 -60z"/>
<path d="M0 2290 l0 -190 190 0 190 0 -2 188 -3 187 -187 3 -188 2 0 -190z"/>
<path d="M390 2290 l0 -190 190 0 190 0 0 190 0 190 -190 0 -190 0 0 -190z"/>
<path d="M790 2290 l0 -190 190 0 190 0 -3 188 -2 187 -187 3 -188 2 0 -190z"/>
<path d="M1180 2290 l0 -190 190 0 190 0 0 190 0 190 -190 0 -190 0 0 -190z"/>
<path d="M1580 2290 l0 -190 188 0 189 0 -3 28 c-1 15 -2 100 -3 190 l-1 162
-185 0 -185 0 0 -190z"/>
<path d="M1970 2290 l0 -190 190 0 190 0 0 190 0 190 -190 0 -190 0 0 -190z"/>
<path d="M2369 2318 c-1 -90 -2 -175 -3 -190 l-3 -28 189 0 188 0 0 190 0 190
-185 0 -185 0 -1 -162z"/>
<path d="M2760 2290 l0 -190 190 0 190 0 0 190 0 190 -190 0 -190 0 0 -190z"/>
<path d="M3157 2473 c-3 -5 -5 -90 -6 -190 l-1 -183 190 0 190 0 0 190 0 190
-184 0 c-102 0 -187 -3 -189 -7z"/>
<path d="M3550 2291 l0 -191 95 0 c52 0 95 2 95 5 0 3 -19 42 -42 88 -23 45
-56 127 -74 182 -26 80 -37 101 -53 103 -21 3 -21 0 -21 -187z"/>
<path d="M6645 2468 c-41 -135 -65 -198 -101 -270 -24 -48 -44 -90 -44 -93 0
-3 43 -5 95 -5 l95 0 0 190 c0 184 -1 190 -20 190 -11 0 -22 -6 -25 -12z"/>
<path d="M6710 2290 l0 -190 190 0 190 0 -3 188 -2 187 -187 3 -188 2 0 -190z"/>
<path d="M7100 2290 l0 -190 190 0 190 0 0 190 0 190 -190 0 -190 0 0 -190z"/>
<path d="M7500 2290 l0 -190 188 0 189 0 -3 28 c-1 15 -2 100 -3 190 l-1 162
-185 0 -185 0 0 -190z"/>
<path d="M7890 2290 l0 -190 190 0 190 0 0 190 0 190 -190 0 -190 0 0 -190z"/>
<path d="M8289 2318 c-1 -90 -2 -175 -3 -190 l-3 -28 189 0 188 0 0 190 0 190
-185 0 -185 0 -1 -162z"/>
<path d="M8680 2290 l0 -190 190 0 190 0 0 190 0 190 -190 0 -190 0 0 -190z"/>
<path d="M9077 2473 c-3 -5 -5 -90 -6 -190 l-1 -183 190 0 190 0 0 190 0 190
-184 0 c-102 0 -187 -3 -189 -7z"/>
<path d="M9470 2290 l0 -190 190 0 190 0 0 190 0 190 -190 0 -190 0 0 -190z"/>
<path d="M9867 2473 c-4 -3 -7 -89 -7 -190 l0 -183 190 0 190 0 0 190 0 190
-183 0 c-101 0 -187 -3 -190 -7z"/>
<path d="M0 1890 l0 -190 190 0 190 0 0 190 0 190 -190 0 -190 0 0 -190z"/>
<path d="M390 1890 l0 -190 190 0 190 0 0 190 0 190 -190 0 -190 0 0 -190z"/>
<path d="M788 1894 c-2 -102 -1 -188 1 -190 2 -2 89 -4 193 -4 l188 0 0 190 0
190 -190 0 -189 0 -3 -186z"/>
<path d="M1180 1890 l0 -190 190 0 190 0 0 190 0 190 -190 0 -190 0 0 -190z"/>
<path d="M1578 1898 c-2 -101 -1 -186 2 -191 4 -4 89 -6 191 -5 l184 3 3 188
2 187 -189 0 -189 0 -4 -182z"/>
<path d="M1970 1890 l0 -190 190 0 190 0 0 190 0 190 -190 0 -190 0 0 -190z"/>
<path d="M2362 1893 l3 -188 184 -3 c102 -1 187 1 191 5 3 5 4 90 2 191 l-4
182 -189 0 -189 0 2 -187z"/>
<path d="M2760 1890 l0 -190 190 0 190 0 0 190 0 190 -190 0 -190 0 0 -190z"/>
<path d="M3150 1890 l0 -190 188 0 c104 0 191 2 193 4 2 2 3 88 1 190 l-3 186
-189 0 -190 0 0 -190z"/>
<path d="M3550 1890 l0 -190 190 0 190 0 0 70 c0 68 -2 72 -42 123 -24 29 -63
82 -88 119 l-45 67 -102 1 -103 0 0 -190z"/>
<path d="M6440 2012 c-25 -37 -64 -90 -87 -119 -41 -51 -43 -55 -43 -123 l0
-70 190 0 190 0 0 190 0 190 -102 0 -103 -1 -45 -67z"/>
<path d="M6708 1894 c-2 -102 -1 -188 1 -190 2 -2 89 -4 193 -4 l188 0 0 190
0 190 -190 0 -189 0 -3 -186z"/>
<path d="M7100 1890 l0 -190 190 0 190 0 0 190 0 190 -190 0 -190 0 0 -190z"/>
<path d="M7498 1898 c-2 -101 -1 -186 2 -191 4 -4 89 -6 191 -5 l184 3 3 188
2 187 -189 0 -189 0 -4 -182z"/>
<path d="M7890 1890 l0 -190 190 0 190 0 0 190 0 190 -190 0 -190 0 0 -190z"/>
<path d="M8282 1893 l3 -188 184 -3 c102 -1 187 1 191 5 3 5 4 90 2 191 l-4
182 -189 0 -189 0 2 -187z"/>
<path d="M8680 1890 l0 -190 190 0 190 0 0 190 0 190 -190 0 -190 0 0 -190z"/>
<path d="M9070 1890 l0 -190 188 0 c104 0 191 2 193 4 2 2 3 88 1 190 l-3 186
-189 0 -190 0 0 -190z"/>
<path d="M9470 1890 l0 -190 190 0 190 0 0 190 0 190 -190 0 -190 0 0 -190z"/>
<path d="M9860 1890 l0 -190 190 0 190 0 0 190 0 190 -190 0 -190 0 0 -190z"/>
<path d="M3940 1760 l0 -60 60 0 c33 0 60 2 60 3 0 5 -112 117 -117 117 -1 0
-3 -27 -3 -60z"/>
<path d="M6233 1762 c-29 -30 -53 -56 -53 -58 0 -2 27 -4 60 -4 l60 0 0 60 c0
33 -3 59 -7 59 -5 -1 -32 -27 -60 -57z"/>
</g>
</svg>
